<svg xmlns="http://www.w3.org/2000/svg" viewBox="0 0 800 500" width="800" height="500" preserveAspectRatio="xMidYMid slice">
  <defs>
    <linearGradient id="bg" x1="0%" y1="0%" x2="100%" y2="100%">
      <stop offset="0%" stop-color="#1a1a2e"/>
      <stop offset="100%" stop-color="#16213e"/>
    </linearGradient>
    <linearGradient id="accent" x1="0%" y1="0%" x2="100%" y2="0%">
      <stop offset="0%" stop-color="#c97d5c"/>
      <stop offset="100%" stop-color="#e8a87c"/>
    </linearGradient>
  </defs>
  <rect width="800" height="500" fill="url(#bg)"/>
  <circle cx="400" cy="250" r="220" fill="none" stroke="url(#accent)" stroke-width="3" opacity="0.2"/>
  <circle cx="400" cy="250" r="160" fill="none" stroke="url(#accent)" stroke-width="2" opacity="0.15"/>
  <rect x="200" y="140" width="400" height="220" rx="24" fill="#1e2a4a" stroke="url(#accent)" stroke-width="3"/>
  <rect x="224" y="164" width="280" height="20" rx="8" fill="url(#accent)" opacity="0.9"/>
  <rect x="224" y="200" width="180" height="14" rx="6" fill="#3a4a6a" opacity="0.7"/>
  <rect x="224" y="226" width="240" height="14" rx="6" fill="#3a4a6a" opacity="0.7"/>
  <rect x="224" y="252" width="160" height="14" rx="6" fill="#3a4a6a" opacity="0.5"/>
  <rect x="224" y="308" width="120" height="36" rx="16" fill="url(#accent)" opacity="0.95"/>
  <rect x="364" y="308" width="90" height="36" rx="16" fill="#2a3a5a" opacity="0.7"/>
  <circle cx="580" cy="340" r="40" fill="url(#accent)" opacity="0.85"/>
  <path d="M568 340 L580 328 L592 340 L580 352 Z" fill="#1a1a2e"/>
  <circle cx="580" cy="340" r="55" fill="url(#accent)" opacity="0.15"/>
</svg>
