<svg xmlns="http://www.w3.org/2000/svg" viewBox="0 0 800 500" width="800" height="500" preserveAspectRatio="xMidYMid slice">
  <defs>
    <linearGradient id="bg4" x1="0%" y1="0%" x2="100%" y2="100%">
      <stop offset="0%" stop-color="#1a1a2e"/>
      <stop offset="100%" stop-color="#16213e"/>
    </linearGradient>
  </defs>
  <rect width="800" height="500" fill="url(#bg4)"/>
  <circle cx="400" cy="250" r="40" fill="#c97d5c" opacity="0.9"/>
  <line x1="400" y1="210" x2="400" y2="130" stroke="#c97d5c" stroke-width="2" opacity="0.6"/>
  <line x1="400" y1="290" x2="400" y2="370" stroke="#c97d5c" stroke-width="2" opacity="0.6"/>
  <line x1="360" y1="250" x2="260" y2="200" stroke="#c97d5c" stroke-width="2" opacity="0.6"/>
  <line x1="440" y1="250" x2="540" y2="200" stroke="#c97d5c" stroke-width="2" opacity="0.6"/>
  <line x1="360" y1="250" x2="260" y2="300" stroke="#c97d5c" stroke-width="2" opacity="0.6"/>
  <line x1="440" y1="250" x2="540" y2="300" stroke="#c97d5c" stroke-width="2" opacity="0.6"/>
  <circle cx="400" cy="110" r="24" fill="#e8a87c" opacity="0.8"/>
  <circle cx="400" cy="390" r="24" fill="#e8a87c" opacity="0.8"/>
  <circle cx="240" cy="185" r="24" fill="#e8a87c" opacity="0.7"/>
  <circle cx="560" cy="185" r="24" fill="#e8a87c" opacity="0.7"/>
  <circle cx="240" cy="315" r="24" fill="#e8a87c" opacity="0.7"/>
  <circle cx="560" cy="315" r="24" fill="#e8a87c" opacity="0.7"/>
  <circle cx="400" cy="110" r="10" fill="#1a1a2e"/>
  <circle cx="400" cy="390" r="10" fill="#1a1a2e"/>
  <circle cx="240" cy="185" r="10" fill="#1a1a2e"/>
  <circle cx="560" cy="185" r="10" fill="#1a1a2e"/>
  <circle cx="240" cy="315" r="10" fill="#1a1a2e"/>
  <circle cx="560" cy="315" r="10" fill="#1a1a2e"/>
</svg>
